<svg width="160" height="28" viewBox="0 0 160 28" fill="none" xmlns="http://www.w3.org/2000/svg">
<rect x="0.5" y="0.5" width="159" height="27" rx="3.5" fill="#4A5565" stroke="#414D5E"/>
<path d="M159.35 19.5662C155.129 10.3547 155.731 1.04548 155.731 1.04548C155.731 1.04548 153.329 0.303832 146.807 4.8104C144.266 6.57241 143.138 7.07314 141.55 7.62268C140.631 7.94076 139.64 8.10294 139.475 9.25242C139.271 10.6633 138.055 15.088 136.215 18.3081C134.375 21.5282 133.537 24.1232 134.215 25.3955C134.215 25.3955 133.962 24.372 136.174 24.4302C137.971 24.4727 140.277 24.5751 145.026 23.0729C149.081 21.7959 153.463 19.8512 159.365 19.5615L159.352 19.5694L159.35 19.5662Z" fill="url(#paint0_linear_6_33)"/>
<path d="M136.193 18.2986C137.05 16.8043 137.784 15.0455 138.315 13.4441C138.524 13.3811 138.733 13.3197 138.947 13.2346C140.535 12.6835 144.704 11.4207 147.257 9.65079C152.417 6.07955 154.994 5.80556 155.855 5.83863C156.161 9.39413 157.025 14.4896 159.343 19.552C153.455 19.8339 149.051 21.7707 145.003 23.0634C140.256 24.5656 137.958 24.479 136.152 24.4208C133.928 24.3688 134.193 25.386 134.193 25.386C133.518 24.0917 134.344 21.5046 136.193 18.2986Z" fill="url(#paint1_linear_6_33)"/>
<path d="M155.855 5.83864C156.021 7.78803 156.362 10.2098 157.011 12.83C152.316 13.5275 148.795 15.3258 145.48 16.6075C141.19 18.2608 139.026 18.253 137.347 18.2608C136.756 18.2687 136.356 18.3632 136.09 18.4797C136.125 18.4199 136.16 18.3601 136.194 18.3002C137.052 16.8059 137.786 15.047 138.317 13.4456C138.526 13.3827 138.735 13.3213 138.948 13.2362C140.536 12.6851 144.706 11.4223 147.259 9.65238C152.419 6.08114 154.996 5.80715 155.856 5.84022L155.855 5.83864Z" fill="url(#paint2_linear_6_33)"/>
<path d="M130.351 22.4667C131.107 19.8796 132.781 15.784 132.915 14.792C133.262 12.1655 131.865 10.8381 131.865 10.8381C131.865 10.8381 133.11 10.9247 135.555 10.5483C137.678 10.2208 139.097 9.59097 139.442 9.43036C139.212 11.0349 137.964 15.1998 136.199 18.2766C134.369 21.451 133.534 24.024 134.184 25.3341C134.318 25.7718 134.88 25.9797 134.88 25.9797C134.136 26.8914 131.908 26.0285 131.329 26.0285C130.623 26.0237 130.68 26.6252 130.903 26.8536C130.96 26.9197 131.06 27 131.06 27C130.002 26.4867 129.671 24.8522 130.365 22.4604L130.353 22.4682L130.351 22.4667Z" fill="url(#paint3_linear_6_33)"/>
<path d="M146.91 12.9323C146.91 12.9323 148.518 9.887 149.689 8.15019C152.373 4.16009 155.731 1.04549 155.731 1.04549C155.731 1.04549 155.304 10.2917 159.35 19.5662C157.61 19.6497 146.91 12.9323 146.91 12.9323Z" fill="#ED1C24"/>
<path style="mix-blend-mode:multiply" opacity="0.55" d="M159.35 19.5662C155.129 10.3547 155.731 1.04548 155.731 1.04548C155.731 1.04548 153.329 0.303832 146.807 4.8104C144.266 6.57241 143.138 7.07314 141.55 7.62268C140.631 7.94076 139.64 8.10294 139.475 9.25242C139.271 10.6633 138.055 15.088 136.215 18.3081C134.375 21.5282 133.537 24.1232 134.215 25.3955C134.215 25.3955 133.962 24.372 136.174 24.4302C137.971 24.4727 140.277 24.5751 145.026 23.0729C149.081 21.7959 153.463 19.8512 159.365 19.5615L159.352 19.5694L159.35 19.5662Z" fill="url(#paint4_linear_6_33)"/>
<path d="M132.914 14.7935C132.936 14.6219 132.956 14.4503 132.966 14.2865L138.341 13.4897C137.779 15.0691 137.05 16.8059 136.205 18.2923C135.927 18.7726 135.688 19.2308 135.462 19.6796C134.549 20.0355 132.604 20.6952 130.966 20.5976C131.784 18.2341 132.823 15.5604 132.926 14.7841L132.914 14.792V14.7935Z" fill="url(#paint5_linear_6_33)"/>
<path d="M138.05 14.2739C137.08 14.6817 134.891 15.4643 132.811 15.2691C132.871 15.0738 132.903 14.9179 132.915 14.7904C133.262 12.1639 131.865 10.8365 131.865 10.8365C131.865 10.8365 133.11 10.9231 135.555 10.5468C137.678 10.2192 139.097 9.58938 139.442 9.42877C139.304 10.3846 138.804 12.2442 138.043 14.2581L138.051 14.2723L138.05 14.2739Z" fill="url(#paint6_linear_6_33)"/>
<g filter="url(#filter0_d_6_33)">
<path d="M9.12926 18L10.5611 9.27273H11.5838L10.152 18H9.12926ZM5.17898 15.6648L5.34517 14.642H11.9588L11.7926 15.6648H5.17898ZM6.06108 18L7.4929 9.27273H8.51562L7.08381 18H6.06108ZM5.68608 12.6307L5.85227 11.608H12.4659L12.2997 12.6307H5.68608ZM18.5994 11.5653C18.5539 11.1619 18.3664 10.8494 18.0369 10.6278C17.7073 10.4034 17.2926 10.2912 16.7926 10.2912C16.4346 10.2912 16.1249 10.348 15.8636 10.4616C15.6022 10.5724 15.3991 10.7259 15.2542 10.9219C15.1122 11.1151 15.0411 11.3352 15.0411 11.5824C15.0411 11.7898 15.0894 11.9687 15.186 12.1193C15.2855 12.2699 15.4147 12.3963 15.5738 12.4986C15.7357 12.598 15.909 12.6818 16.0937 12.75C16.2784 12.8153 16.4559 12.8693 16.6264 12.9119L17.4786 13.1335C17.757 13.2017 18.0426 13.294 18.3352 13.4105C18.6278 13.527 18.8991 13.6804 19.1491 13.8707C19.3991 14.0611 19.6008 14.2969 19.7542 14.5781C19.9105 14.8594 19.9886 15.196 19.9886 15.5881C19.9886 16.0824 19.8607 16.5213 19.6051 16.9048C19.3522 17.2884 18.9843 17.5909 18.5014 17.8125C18.0212 18.0341 17.4403 18.1449 16.7585 18.1449C16.1051 18.1449 15.5397 18.0412 15.0624 17.8338C14.5852 17.6264 14.2116 17.3324 13.9417 16.9517C13.6718 16.5682 13.5227 16.1136 13.4943 15.5881H14.8153C14.8409 15.9034 14.9431 16.1662 15.1221 16.3764C15.3039 16.5838 15.5355 16.7386 15.8167 16.8409C16.1008 16.9403 16.4119 16.9901 16.7499 16.9901C17.1221 16.9901 17.4531 16.9318 17.7428 16.8153C18.0355 16.696 18.2656 16.5312 18.4332 16.321C18.6008 16.108 18.6846 15.8594 18.6846 15.5753C18.6846 15.3168 18.6107 15.1051 18.463 14.9403C18.3181 14.7756 18.1207 14.6392 17.8707 14.5312C17.6235 14.4233 17.3437 14.3281 17.0312 14.2457L15.9999 13.9645C15.3011 13.7741 14.7471 13.4943 14.338 13.125C13.9318 12.7557 13.7286 12.267 13.7286 11.6591C13.7286 11.1562 13.865 10.7173 14.1377 10.3423C14.4105 9.96733 14.7798 9.67614 15.2457 9.46875C15.7116 9.25852 16.2372 9.15341 16.8224 9.15341C17.4133 9.15341 17.9346 9.2571 18.3863 9.46449C18.8409 9.67188 19.1988 9.95739 19.4602 10.321C19.7215 10.6818 19.8579 11.0966 19.8693 11.5653H18.5994ZM24.7552 11.4545V12.4773H21.1799V11.4545H24.7552ZM22.1387 9.88636H23.4129V16.0781C23.4129 16.3253 23.4498 16.5114 23.5237 16.6364C23.5975 16.7585 23.6927 16.8423 23.8092 16.8878C23.9285 16.9304 24.0578 16.9517 24.197 16.9517C24.2992 16.9517 24.3887 16.9446 24.4654 16.9304C24.5421 16.9162 24.6018 16.9048 24.6444 16.8963L24.8745 17.9489C24.8007 17.9773 24.6956 18.0057 24.5592 18.0341C24.4228 18.0653 24.2524 18.0824 24.0478 18.0852C23.7126 18.0909 23.4001 18.0312 23.1103 17.9062C22.8206 17.7812 22.5862 17.5881 22.4072 17.3267C22.2282 17.0653 22.1387 16.7372 22.1387 16.3423V9.88636ZM28.3095 18.1449C27.8947 18.1449 27.5197 18.0682 27.1845 17.9148C26.8493 17.7585 26.5836 17.5327 26.3876 17.2372C26.1944 16.9418 26.0978 16.5795 26.0978 16.1506C26.0978 15.7812 26.1689 15.4773 26.3109 15.2386C26.453 15 26.6447 14.8111 26.8862 14.6719C27.1277 14.5327 27.3976 14.4276 27.6959 14.3565C27.9941 14.2855 28.2981 14.2315 28.6078 14.1946C28.9998 14.1491 29.318 14.1122 29.5623 14.0838C29.8066 14.0526 29.9842 14.0028 30.095 13.9347C30.2058 13.8665 30.2612 13.7557 30.2612 13.6023V13.5724C30.2612 13.2003 30.1561 12.9119 29.9459 12.7074C29.7385 12.5028 29.4288 12.4006 29.0169 12.4006C28.5879 12.4006 28.2498 12.4957 28.0027 12.6861C27.7584 12.8736 27.5893 13.0824 27.4956 13.3125L26.2981 13.0398C26.4402 12.642 26.6476 12.321 26.9203 12.0767C27.1959 11.8295 27.5126 11.6506 27.8706 11.5398C28.2285 11.4261 28.6049 11.3693 28.9998 11.3693C29.2612 11.3693 29.5382 11.4006 29.8308 11.4631C30.1262 11.5227 30.4018 11.6335 30.6575 11.7955C30.916 11.9574 31.1277 12.1889 31.2924 12.4901C31.4572 12.7884 31.5396 13.1761 31.5396 13.6534V18H30.2953V17.1051H30.2441C30.1618 17.2699 30.0382 17.4318 29.8734 17.5909C29.7086 17.75 29.497 17.8821 29.2385 17.9872C28.9799 18.0923 28.6703 18.1449 28.3095 18.1449ZM28.5865 17.1222C28.9387 17.1222 29.2399 17.0526 29.4899 16.9134C29.7427 16.7741 29.9345 16.5923 30.0652 16.3679C30.1987 16.1406 30.2655 15.8977 30.2655 15.6392V14.7955C30.22 14.8409 30.1319 14.8835 30.0012 14.9233C29.8734 14.9602 29.7271 14.9929 29.5623 15.0213C29.3976 15.0469 29.237 15.071 29.0808 15.0938C28.9245 15.1136 28.7939 15.1307 28.6887 15.1449C28.4416 15.1761 28.2157 15.2287 28.0112 15.3026C27.8095 15.3764 27.6476 15.483 27.5254 15.6222C27.4061 15.7585 27.3464 15.9403 27.3464 16.1676C27.3464 16.483 27.4629 16.7216 27.6959 16.8835C27.9288 17.0426 28.2257 17.1222 28.5865 17.1222ZM34.7508 14.1136V18H33.4767V11.4545H34.6997V12.5199H34.7807C34.9312 12.1733 35.167 11.8949 35.4881 11.6847C35.8119 11.4744 36.2196 11.3693 36.7111 11.3693C37.1571 11.3693 37.5477 11.4631 37.8829 11.6506C38.2182 11.8352 38.4781 12.1108 38.6628 12.4773C38.8474 12.8437 38.9398 13.2969 38.9398 13.8366V18H37.6656V13.9901C37.6656 13.5156 37.542 13.1449 37.2949 12.8778C37.0477 12.608 36.7082 12.473 36.2764 12.473C35.981 12.473 35.7182 12.5369 35.4881 12.6648C35.2608 12.7926 35.0804 12.9801 34.9469 13.2273C34.8162 13.4716 34.7508 13.767 34.7508 14.1136ZM43.3389 18.1278C42.8104 18.1278 42.3389 17.9929 41.9241 17.723C41.5121 17.4503 41.1883 17.0625 40.9525 16.5597C40.7195 16.054 40.6031 15.4474 40.6031 14.7401C40.6031 14.0327 40.721 13.4276 40.9567 12.9247C41.1954 12.4219 41.5221 12.0369 41.9369 11.7699C42.3516 11.5028 42.8218 11.3693 43.3474 11.3693C43.7536 11.3693 44.0803 11.4375 44.3275 11.5739C44.5775 11.7074 44.7707 11.8636 44.907 12.0426C45.0462 12.2216 45.1542 12.3793 45.2309 12.5156H45.3076V9.27273H46.5817V18H45.3374V16.9815H45.2309C45.1542 17.1207 45.0434 17.2798 44.8985 17.4588C44.7565 17.6378 44.5604 17.794 44.3104 17.9276C44.0604 18.0611 43.7366 18.1278 43.3389 18.1278ZM43.6201 17.0412C43.9866 17.0412 44.2962 16.9446 44.5491 16.7514C44.8048 16.5554 44.9979 16.2841 45.1286 15.9375C45.2621 15.5909 45.3289 15.1875 45.3289 14.7273C45.3289 14.2727 45.2636 13.875 45.1329 13.5341C45.0022 13.1932 44.8104 12.9276 44.5576 12.7372C44.3048 12.5469 43.9923 12.4517 43.6201 12.4517C43.2366 12.4517 42.917 12.5511 42.6613 12.75C42.4056 12.9489 42.2124 13.2202 42.0817 13.5639C41.9539 13.9077 41.89 14.2955 41.89 14.7273C41.89 15.1648 41.9553 15.5582 42.086 15.9077C42.2167 16.2571 42.4099 16.5341 42.6656 16.7386C42.9241 16.9403 43.2423 17.0412 43.6201 17.0412ZM50.4514 18L48.0309 9.27273H49.4159L51.1161 16.0312H51.1971L52.9656 9.27273H54.3377L56.1062 16.0355H56.1872L57.8832 9.27273H59.2724L56.8477 18H55.5224L53.6857 11.4631H53.6176L51.7809 18H50.4514ZM60.6108 18V11.4545H61.8849V18H60.6108ZM61.2542 10.4446C61.0326 10.4446 60.8423 10.3707 60.6832 10.223C60.5269 10.0724 60.4488 9.89347 60.4488 9.68608C60.4488 9.47585 60.5269 9.29687 60.6832 9.14915C60.8423 8.99858 61.0326 8.9233 61.2542 8.9233C61.4758 8.9233 61.6647 8.99858 61.821 9.14915C61.9801 9.29687 62.0596 9.47585 62.0596 9.68608C62.0596 9.89347 61.9801 10.0724 61.821 10.223C61.6647 10.3707 61.4758 10.4446 61.2542 10.4446ZM66.8944 11.4545V12.4773H63.3191V11.4545H66.8944ZM64.278 9.88636H65.5521V16.0781C65.5521 16.3253 65.589 16.5114 65.6629 16.6364C65.7368 16.7585 65.8319 16.8423 65.9484 16.8878C66.0677 16.9304 66.197 16.9517 66.3362 16.9517C66.4385 16.9517 66.528 16.9446 66.6047 16.9304C66.6814 16.9162 66.741 16.9048 66.7836 16.8963L67.0137 17.9489C66.9399 17.9773 66.8348 18.0057 66.6984 18.0341C66.562 18.0653 66.3916 18.0824 66.187 18.0852C65.8518 18.0909 65.5393 18.0312 65.2495 17.9062C64.9598 17.7812 64.7254 17.5881 64.5464 17.3267C64.3674 17.0653 64.278 16.7372 64.278 16.3423V9.88636ZM69.9587 14.1136V18H68.6845V9.27273H69.9416V12.5199H70.0226C70.176 12.1676 70.4104 11.8878 70.7257 11.6804C71.041 11.473 71.453 11.3693 71.9615 11.3693C72.4104 11.3693 72.8024 11.4616 73.1376 11.6463C73.4757 11.831 73.7371 12.1065 73.9217 12.473C74.1092 12.8366 74.203 13.2912 74.203 13.8366V18H72.9288V13.9901C72.9288 13.5099 72.8052 13.1378 72.5581 12.8736C72.3109 12.6065 71.9672 12.473 71.5268 12.473C71.2257 12.473 70.9558 12.5369 70.7172 12.6648C70.4814 12.7926 70.2953 12.9801 70.1589 13.2273C70.0254 13.4716 69.9587 13.767 69.9587 14.1136ZM76.2455 18V9.27273H79.3563C80.0353 9.27273 80.5978 9.39631 81.0438 9.64347C81.4898 9.89062 81.8237 10.2287 82.0452 10.6577C82.2668 11.0838 82.3776 11.5639 82.3776 12.098C82.3776 12.6349 82.2654 13.1179 82.041 13.5469C81.8194 13.973 81.4842 14.3111 81.0353 14.5611C80.5893 14.8082 80.0282 14.9318 79.3521 14.9318H77.2129V13.8153H79.2327C79.6617 13.8153 80.0097 13.7415 80.2768 13.5938C80.5438 13.4432 80.7398 13.2386 80.8648 12.9801C80.9898 12.7216 81.0523 12.4276 81.0523 12.098C81.0523 11.7685 80.9898 11.4759 80.8648 11.2202C80.7398 10.9645 80.5424 10.7642 80.2725 10.6193C80.0055 10.4744 79.6532 10.402 79.2157 10.402H77.5623V18H76.2455ZM85.9053 18.1449C85.4905 18.1449 85.1155 18.0682 84.7803 17.9148C84.445 17.7585 84.1794 17.5327 83.9834 17.2372C83.7902 16.9418 83.6936 16.5795 83.6936 16.1506C83.6936 15.7812 83.7646 15.4773 83.9067 15.2386C84.0487 15 84.2405 14.8111 84.482 14.6719C84.7235 14.5327 84.9933 14.4276 85.2916 14.3565C85.5899 14.2855 85.8939 14.2315 86.2036 14.1946C86.5956 14.1491 86.9138 14.1122 87.1581 14.0838C87.4024 14.0526 87.58 14.0028 87.6908 13.9347C87.8016 13.8665 87.857 13.7557 87.857 13.6023V13.5724C87.857 13.2003 87.7519 12.9119 87.5416 12.7074C87.3342 12.5028 87.0246 12.4006 86.6127 12.4006C86.1837 12.4006 85.8456 12.4957 85.5985 12.6861C85.3541 12.8736 85.1851 13.0824 85.0913 13.3125L83.8939 13.0398C84.036 12.642 84.2433 12.321 84.5161 12.0767C84.7916 11.8295 85.1084 11.6506 85.4663 11.5398C85.8243 11.4261 86.2007 11.3693 86.5956 11.3693C86.857 11.3693 87.134 11.4006 87.4266 11.4631C87.722 11.5227 87.9976 11.6335 88.2533 11.7955C88.5118 11.9574 88.7235 12.1889 88.8882 12.4901C89.053 12.7884 89.1354 13.1761 89.1354 13.6534V18H87.8911V17.1051H87.8399C87.7575 17.2699 87.634 17.4318 87.4692 17.5909C87.3044 17.75 87.0928 17.8821 86.8342 17.9872C86.5757 18.0923 86.2661 18.1449 85.9053 18.1449ZM86.1823 17.1222C86.5345 17.1222 86.8357 17.0526 87.0857 16.9134C87.3385 16.7741 87.5303 16.5923 87.661 16.3679C87.7945 16.1406 87.8612 15.8977 87.8612 15.6392V14.7955C87.8158 14.8409 87.7277 14.8835 87.597 14.9233C87.4692 14.9602 87.3229 14.9929 87.1581 15.0213C86.9933 15.0469 86.8328 15.071 86.6766 15.0938C86.5203 15.1136 86.3896 15.1307 86.2845 15.1449C86.0374 15.1761 85.8115 15.2287 85.607 15.3026C85.4053 15.3764 85.2433 15.483 85.1212 15.6222C85.0019 15.7585 84.9422 15.9403 84.9422 16.1676C84.9422 16.483 85.0587 16.7216 85.2916 16.8835C85.5246 17.0426 85.8215 17.1222 86.1823 17.1222ZM92.3466 9.27273V18H91.0725V9.27273H92.3466ZM97.1218 18.1321C96.4769 18.1321 95.9215 17.9943 95.4556 17.7188C94.9925 17.4403 94.6346 17.0497 94.3817 16.5469C94.1317 16.0412 94.0067 15.4489 94.0067 14.7699C94.0067 14.0994 94.1317 13.5085 94.3817 12.9972C94.6346 12.4858 94.9868 12.0866 95.4385 11.7997C95.8931 11.5128 96.4243 11.3693 97.0323 11.3693C97.4016 11.3693 97.7596 11.4304 98.1062 11.5526C98.4527 11.6747 98.7638 11.8665 99.0394 12.1278C99.315 12.3892 99.5323 12.7287 99.6914 13.1463C99.8505 13.5611 99.93 14.0653 99.93 14.6591V15.1108H94.7269V14.1562H98.6814C98.6814 13.821 98.6133 13.5241 98.4769 13.2656C98.3405 13.0043 98.1488 12.7983 97.9016 12.6477C97.6573 12.4972 97.3704 12.4219 97.0408 12.4219C96.6829 12.4219 96.3704 12.5099 96.1033 12.6861C95.8391 12.8594 95.6346 13.0866 95.4897 13.3679C95.3476 13.6463 95.2766 13.9489 95.2766 14.2756V15.0213C95.2766 15.4588 95.3533 15.831 95.5067 16.1378C95.663 16.4446 95.8803 16.679 96.1587 16.8409C96.4371 17 96.7624 17.0795 97.1346 17.0795C97.376 17.0795 97.5962 17.0455 97.7951 16.9773C97.9939 16.9062 98.1658 16.8011 98.3107 16.6619C98.4556 16.5227 98.5664 16.3509 98.6431 16.1463L99.8491 16.3636C99.7525 16.7187 99.5792 17.0298 99.3292 17.2969C99.082 17.5611 98.7709 17.767 98.3959 17.9148C98.0238 18.0597 97.5991 18.1321 97.1218 18.1321ZM106.489 13.0526L105.334 13.2571C105.285 13.1094 105.209 12.9687 105.104 12.8352C105.001 12.7017 104.862 12.5923 104.686 12.5071C104.51 12.4219 104.29 12.3793 104.025 12.3793C103.665 12.3793 103.364 12.4602 103.122 12.6222C102.881 12.7812 102.76 12.9872 102.76 13.2401C102.76 13.4588 102.841 13.6349 103.003 13.7685C103.165 13.902 103.426 14.0114 103.787 14.0966L104.827 14.3352C105.429 14.4744 105.878 14.6889 106.173 14.9787C106.469 15.2685 106.616 15.6449 106.616 16.108C106.616 16.5 106.503 16.8494 106.275 17.1562C106.051 17.4602 105.737 17.6989 105.334 17.8722C104.933 18.0455 104.469 18.1321 103.94 18.1321C103.207 18.1321 102.609 17.9759 102.146 17.6634C101.683 17.348 101.399 16.9006 101.294 16.321L102.525 16.1335C102.602 16.4545 102.76 16.6974 102.998 16.8622C103.237 17.0241 103.548 17.1051 103.932 17.1051C104.349 17.1051 104.683 17.0185 104.933 16.8452C105.183 16.669 105.308 16.4545 105.308 16.2017C105.308 15.9972 105.231 15.8253 105.078 15.6861C104.927 15.5469 104.696 15.4418 104.383 15.3707L103.275 15.1278C102.665 14.9886 102.213 14.767 101.92 14.4631C101.631 14.1591 101.486 13.7741 101.486 13.3082C101.486 12.9219 101.594 12.5838 101.81 12.294C102.025 12.0043 102.324 11.7784 102.704 11.6165C103.085 11.4517 103.521 11.3693 104.013 11.3693C104.72 11.3693 105.277 11.5227 105.683 11.8295C106.089 12.1335 106.358 12.5412 106.489 13.0526ZM111.313 11.4545V12.4773H107.737V11.4545H111.313ZM108.696 9.88636H109.97V16.0781C109.97 16.3253 110.007 16.5114 110.081 16.6364C110.155 16.7585 110.25 16.8423 110.367 16.8878C110.486 16.9304 110.615 16.9517 110.754 16.9517C110.857 16.9517 110.946 16.9446 111.023 16.9304C111.1 16.9162 111.159 16.9048 111.202 16.8963L111.432 17.9489C111.358 17.9773 111.253 18.0057 111.117 18.0341C110.98 18.0653 110.81 18.0824 110.605 18.0852C110.27 18.0909 109.958 18.0312 109.668 17.9062C109.378 17.7812 109.144 17.5881 108.965 17.3267C108.786 17.0653 108.696 16.7372 108.696 16.3423V9.88636ZM112.962 18V11.4545H114.236V18H112.962ZM113.606 10.4446C113.384 10.4446 113.194 10.3707 113.035 10.223C112.878 10.0724 112.8 9.89347 112.8 9.68608C112.8 9.47585 112.878 9.29687 113.035 9.14915C113.194 8.99858 113.384 8.9233 113.606 8.9233C113.827 8.9233 114.016 8.99858 114.172 9.14915C114.331 9.29687 114.411 9.47585 114.411 9.68608C114.411 9.89347 114.331 10.0724 114.172 10.223C114.016 10.3707 113.827 10.4446 113.606 10.4446ZM117.465 14.1136V18H116.19V11.4545H117.413V12.5199H117.494C117.645 12.1733 117.881 11.8949 118.202 11.6847C118.526 11.4744 118.933 11.3693 119.425 11.3693C119.871 11.3693 120.261 11.4631 120.597 11.6506C120.932 11.8352 121.192 12.1108 121.377 12.4773C121.561 12.8437 121.654 13.2969 121.654 13.8366V18H120.379V13.9901C120.379 13.5156 120.256 13.1449 120.009 12.8778C119.761 12.608 119.422 12.473 118.99 12.473C118.695 12.473 118.432 12.5369 118.202 12.6648C117.975 12.7926 117.794 12.9801 117.661 13.2273C117.53 13.4716 117.465 13.767 117.465 14.1136ZM126.423 18.1321C125.778 18.1321 125.223 17.9943 124.757 17.7188C124.294 17.4403 123.936 17.0497 123.683 16.5469C123.433 16.0412 123.308 15.4489 123.308 14.7699C123.308 14.0994 123.433 13.5085 123.683 12.9972C123.936 12.4858 124.288 12.0866 124.74 11.7997C125.195 11.5128 125.726 11.3693 126.334 11.3693C126.703 11.3693 127.061 11.4304 127.408 11.5526C127.754 11.6747 128.065 11.8665 128.341 12.1278C128.617 12.3892 128.834 12.7287 128.993 13.1463C129.152 13.5611 129.232 14.0653 129.232 14.6591V15.1108H124.028V14.1562H127.983C127.983 13.821 127.915 13.5241 127.778 13.2656C127.642 13.0043 127.45 12.7983 127.203 12.6477C126.959 12.4972 126.672 12.4219 126.342 12.4219C125.984 12.4219 125.672 12.5099 125.405 12.6861C125.141 12.8594 124.936 13.0866 124.791 13.3679C124.649 13.6463 124.578 13.9489 124.578 14.2756V15.0213C124.578 15.4588 124.655 15.831 124.808 16.1378C124.965 16.4446 125.182 16.679 125.46 16.8409C125.739 17 126.064 17.0795 126.436 17.0795C126.678 17.0795 126.898 17.0455 127.097 16.9773C127.295 16.9062 127.467 16.8011 127.612 16.6619C127.757 16.5227 127.868 16.3509 127.945 16.1463L129.151 16.3636C129.054 16.7187 128.881 17.0298 128.631 17.2969C128.384 17.5611 128.072 17.767 127.697 17.9148C127.325 18.0597 126.901 18.1321 126.423 18.1321Z" fill="white"/>
</g>
<defs>
<filter id="filter0_d_6_33" x="4.17897" y="8.92329" width="126.053" height="11.2216" filterUnits="userSpaceOnUse" color-interpolation-filters="sRGB">
<feFlood flood-opacity="0" result="BackgroundImageFix"/>
<feColorMatrix in="SourceAlpha" type="matrix" values="0 0 0 0 0 0 0 0 0 0 0 0 0 0 0 0 0 0 127 0" result="hardAlpha"/>
<feOffset dy="1"/>
<feGaussianBlur stdDeviation="0.5"/>
<feComposite in2="hardAlpha" operator="out"/>
<feColorMatrix type="matrix" values="0 0 0 0 0 0 0 0 0 0 0 0 0 0 0 0 0 0 0.25 0"/>
<feBlend mode="lighten" in2="BackgroundImageFix" result="effect1_dropShadow_6_33"/>
<feBlend mode="normal" in="SourceGraphic" in2="effect1_dropShadow_6_33" result="shape"/>
</filter>
<linearGradient id="paint0_linear_6_33" x1="151.29" y1="12.2505" x2="135.922" y2="17.7746" gradientUnits="userSpaceOnUse">
<stop stop-color="#1E1E1E"/>
<stop offset="1" stop-color="#2B2C2B"/>
</linearGradient>
<linearGradient id="paint1_linear_6_33" x1="147.398" y1="15.4816" x2="132.023" y2="19.9088" gradientUnits="userSpaceOnUse">
<stop stop-color="#1A6634"/>
<stop offset="0.84" stop-color="#37A348"/>
<stop offset="0.87" stop-color="#349B47"/>
<stop offset="0.93" stop-color="#2A8842"/>
<stop offset="0.99" stop-color="#1E6835"/>
<stop offset="1" stop-color="#1A6333"/>
</linearGradient>
<linearGradient id="paint2_linear_6_33" x1="138.053" y1="13.5858" x2="153.015" y2="11.0678" gradientUnits="userSpaceOnUse">
<stop stop-color="#E6E7E7"/>
<stop offset="0.39" stop-color="#BBBDBF"/>
<stop offset="0.5" stop-color="#ABADAE"/>
<stop offset="0.7" stop-color="#808283"/>
<stop offset="0.94" stop-color="#484B4D"/>
</linearGradient>
<linearGradient id="paint3_linear_6_33" x1="133.899" y1="18.4246" x2="127.649" y2="19.4017" gradientUnits="userSpaceOnUse">
<stop stop-color="#1A6634"/>
<stop offset="0.84" stop-color="#37A348"/>
<stop offset="0.87" stop-color="#349B47"/>
<stop offset="0.93" stop-color="#2A8842"/>
<stop offset="0.99" stop-color="#1E6835"/>
<stop offset="1" stop-color="#1A6333"/>
</linearGradient>
<linearGradient id="paint4_linear_6_33" x1="144.918" y1="13.2" x2="136.303" y2="10.0412" gradientUnits="userSpaceOnUse">
<stop stop-color="#504E4E"/>
<stop offset="0.04" stop-color="#5C595A"/>
<stop offset="0.11" stop-color="#7C7B7B"/>
<stop offset="0.18" stop-color="#9F9F9F"/>
<stop offset="0.27" stop-color="#9A9797"/>
<stop offset="0.33" stop-color="#949090"/>
<stop offset="0.4" stop-color="#9F9C9B"/>
<stop offset="0.54" stop-color="#C2C0C0"/>
<stop offset="0.61" stop-color="#BBBABA"/>
<stop offset="0.69" stop-color="#A8A6A6"/>
<stop offset="0.79" stop-color="#888787"/>
<stop offset="0.91" stop-color="#5F5D5D"/>
<stop offset="0.94" stop-color="#504E4E"/>
</linearGradient>
<linearGradient id="paint5_linear_6_33" x1="130.571" y1="15.595" x2="138.058" y2="18.2793" gradientUnits="userSpaceOnUse">
<stop stop-color="#E6E7E7"/>
<stop offset="0.39" stop-color="#BBBDBF"/>
<stop offset="0.5" stop-color="#ABADAE"/>
<stop offset="0.7" stop-color="#808283"/>
<stop offset="0.94" stop-color="#484B4D"/>
</linearGradient>
<linearGradient id="paint6_linear_6_33" x1="139.643" y1="12.1418" x2="130.326" y2="12.833" gradientUnits="userSpaceOnUse">
<stop stop-color="#1E1E1E"/>
<stop offset="1" stop-color="#2B2C2B"/>
</linearGradient>
</defs>
</svg>
